Coordinates
version=1
nRows=9
nColumns=26
inDegrees=yes

Units are S.I. units (second, meters, Newtons, ...)
Angles are in degrees.

endheader
time	pelvis_tilt	pelvis_list	pelvis_rotation	pelvis_tx	pelvis_ty	pelvis_tz	hip_flexion_r	hip_adduction_r	hip_rotation_r	knee_angle_r	knee_angle_r_beta	ankle_angle_r	subtalar_angle_r	mtp_angle_r	hip_flexion_l	hip_adduction_l	hip_rotation_l	knee_angle_l	knee_angle_l_beta	ankle_angle_l	subtalar_angle_l	mtp_angle_l	lumbar_extension	lumbar_bending	lumbar_rotation
      0.86800000	     -4.79365785	     -8.44098404	     -7.39150687	      1.06167507	      0.97155144	      0.18289919	     33.63842050	      4.76584877	    -25.82510997	     29.53141138	      0.51542036	     -4.90426301	      0.00000000	      0.00000000	    -16.79767252	     -1.57484042	     -8.94916002	     89.87440433	      1.56860427	    -18.17119073	      0.00000000	      0.00000000	    -10.37066563	     13.69554037	     -4.14496241
      0.87200000	     -4.46615044	     -8.23664612	     -7.64176539	      1.08760932	      0.96941423	      0.18311996	     32.36507014	      4.79460905	    -24.48468070	     30.71563325	      0.53608893	     -0.64799995	      0.00000000	      0.00000000	    -15.87222826	     -1.64624305	     -9.13836593	     93.01402242	      1.62340094	    -16.62000925	      0.00000000	      0.00000000	    -10.85052093	     13.46158233	     -3.18475002
      0.87600000	     -4.24914457	     -7.89617672	     -7.90964376	      1.11334844	      0.96698408	      0.18324286	     31.32940115	      4.67562130	    -23.64332249	     32.36757145	      0.56492069	      3.37337121	      0.00000000	      0.00000000	    -14.71680246	     -1.52234251	     -9.15662141	     96.12267168	      1.67765711	    -14.96667737	      0.00000000	      0.00000000	    -11.20247779	     13.09584878	     -2.23297867
      0.88000000	     -3.96686067	     -7.88014176	     -7.99577899	      1.13912776	      0.96489974	      0.18381076	     30.09885867	      5.02746137	    -22.03063264	     33.84618710	      0.59072740	      6.91232950	      0.00000000	      0.00000000	    -13.60855999	     -1.85262273	     -9.00399832	     99.21184217	      1.73157330	    -13.41888576	      0.00000000	      0.00000000	    -11.65906814	     13.02789530	     -1.38360016
      0.88400000	     -3.94132936	     -8.05119320	     -7.86446377	      1.16399562	      0.96251235	      0.18404943	     29.22642452	      5.44754887	    -20.87038587	     35.34442620	      0.61687661	      9.74301107	      0.00000000	      0.00000000	    -12.01431493	     -2.41503794	     -8.45199438	    102.52816634	      1.78945408	    -11.80424676	      0.00000000	      0.00000000	    -11.93475127	     13.21242365	     -0.69739363
      0.88800000	     -3.67861602	     -7.92099526	     -8.62545057	      1.18834893	      0.96095188	      0.18506542	     28.37711895	      5.80386229	    -18.96358237	     37.22548457	      0.64970727	     11.83617342	      0.00000000	      0.00000000	    -10.66139916	     -2.43438124	     -8.67943765	    105.46156808	      1.84065160	    -10.53583305	      0.00000000	      0.00000000	    -12.71882348	     12.92523364	      0.85790736
      0.89200000	     -3.45761580	     -7.89063237	     -8.82234889	      1.21242934	      0.95936593	      0.18577615	     27.77581779	      5.80975508	    -17.76313268	     39.51119501	      0.68960044	     14.29204037	      0.00000000	      0.00000000	     -9.03606188	     -2.62979147	     -8.17443599	    108.50118245	      1.89370288	     -9.20618101	      0.00000000	      0.00000000	    -13.39858365	     12.75400974	      1.75418176
      0.89600000	     -3.23209234	     -7.91514804	     -9.02607472	      1.23607598	      0.95780976	      0.18655808	     27.22098724	      5.77707611	    -16.74635774	     41.87622551	      0.73087801	     16.09610892	      0.00000000	      0.00000000	     -7.31678473	     -2.91505008	     -7.57307996	    111.51566839	      1.94631558	     -8.03437558	      0.00000000	      0.00000000	    -14.18658540	     12.63136309	      2.70059545
      0.90000000	     -2.74015911	     -7.86313960	     -9.12515120	      1.25994848	      0.95672496	      0.18757314	     26.24509421	      5.59561117	    -15.91778012	     44.03719179	      0.76859399	     18.07618608	      0.00000000	      0.00000000	     -5.82286389	     -3.08648327	     -6.84415919	    114.28627597	      1.99467181	     -6.76221198	      0.00000000	      0.00000000	    -15.23887318	     12.28628147	      3.45888603
